<?xml version="1.0" standalone="no"?><!DOCTYPE svg PUBLIC "-//W3C//DTD SVG 1.1//EN" "http://www.w3.org/Graphics/SVG/1.1/DTD/svg11.dtd"><svg class="icon" width="200px" height="200.00px" viewBox="0 0 1024 1024" version="1.1" xmlns="http://www.w3.org/2000/svg"><path d="M937.984 1024H86.016C38.912 1024 0 985.088 0 937.984V86.016C0 38.912 38.912 0 86.016 0h851.968c47.104 0 86.016 38.912 86.016 86.016v851.968c0 47.104-38.912 86.016-86.016 86.016z" fill="#0288d1" /><path d="M788.48 291.84H235.52c-28.672 0-51.2 22.528-51.2 51.2v337.92c0 28.672 23.552 51.2 51.2 51.2h552.96c28.672 0 51.2-22.528 51.2-51.2v-337.92c0-28.672-23.552-51.2-51.2-51.2z m-3.072 31.744L557.056 525.312c-20.48 18.432-34.816 26.624-45.056 26.624-10.24 0-25.6-8.192-45.056-26.624L238.592 323.584h546.816zM217.088 677.888V354.304L399.36 514.048l-182.272 163.84z m22.528 22.528l183.296-162.816 30.72 26.624c15.36 13.312 34.816 20.48 57.344 20.48 22.528 0 41.984-7.168 58.368-20.48l30.72-26.624 183.296 162.816H239.616z m567.296-22.528L624.64 514.048l182.272-159.744v323.584z" fill="#ffffff" /></svg>