<?xml version="1.0" standalone="no"?><!DOCTYPE svg PUBLIC "-//W3C//DTD SVG 1.1//EN" "http://www.w3.org/Graphics/SVG/1.1/DTD/svg11.dtd"><svg class="icon" width="200px" height="200.00px" viewBox="0 0 1024 1024" version="1.1" xmlns="http://www.w3.org/2000/svg"><path d="M527.824919 798.551318V248.418836a31.924083 31.924083 0 0 1 7.553023 5.605671l150.765749 150.764726c5.664 5.664 14.84715 5.664 20.511149 0 5.665023-5.664 5.665023-14.84715 0-20.51115L555.889091 233.513358c-11.482519-11.482519-26.749224-17.806551-42.987047-17.806551-16.238846 0-31.504528 6.325056-42.986023 17.806551L319.149249 384.278083a14.45113 14.45113 0 0 0-4.247744 10.255575 14.459317 14.459317 0 0 0 4.246721 10.254552c5.664 5.664 14.848173 5.664 20.511149 0l150.767795-150.764726a31.833009 31.833009 0 0 1 8.390088-6.028297l0.001023 550.554085c0 6.78145 6.493901 12.279674 14.503319 12.279674s14.503319-5.497201 14.503319-12.277628z" fill="#444549" /></svg>