<?xml version="1.0" standalone="no"?><!DOCTYPE svg PUBLIC "-//W3C//DTD SVG 1.1//EN" "http://www.w3.org/Graphics/SVG/1.1/DTD/svg11.dtd"><svg class="icon" width="200px" height="141.44px" viewBox="0 0 1448 1024" version="1.1" xmlns="http://www.w3.org/2000/svg"><path d="M713.858559 247.184277h-160.317151v160.317151H713.858559v-160.317151z m-32.166639 127.978498h-95.639845v-95.639845h95.639845v95.639845zM553.713422 651.417437H713.858559v-160.317151h-160.317151v160.317151h0.172014z m32.166638-127.978499h95.639846v95.639846h-95.639846v-95.639846zM811.390559 247.184277v160.317151h160.317151v-160.317151h-160.317151z m127.978499 127.978498h-95.639846v-95.639845h95.639846v95.639845zM747.40131 247.184277h32.166639v80.158575h-32.166639v-80.158575z"  /><path d="M747.40131 433.819587h-57.280699V466.15824h57.280699v54.528473h32.166639v-155.844785h-32.166639v68.977659zM939.369058 619.078784h-135.031077v32.338653H971.535696v-155.844785h-32.166638v123.506132zM553.713422 433.819587h77.922392V466.15824h-77.922392v-32.338653zM804.337981 573.495045h32.338653v-45.755754h45.583739v-32.166639h-77.922392v77.922393zM747.40131 573.495045h32.166639v77.922392h-32.166639v-77.922392z"  /><path d="M875.379808 559.90593h32.166639v32.338653h-32.166639v-32.338653zM857.490341 436.743827h114.045355v32.166638h-114.045355v-32.166638z"  /></svg>