<?xml version="1.0" standalone="no"?><!DOCTYPE svg PUBLIC "-//W3C//DTD SVG 1.1//EN" "http://www.w3.org/Graphics/SVG/1.1/DTD/svg11.dtd"><svg class="icon" width="200px" height="200.00px" viewBox="0 0 1024 1024" version="1.1" xmlns="http://www.w3.org/2000/svg"><path d="M682.32611325 101.39053172c-133.54519159 0-242.03316166 100.71883144-242.03316166 224.74507778 0 4.899457 0.5599375 9.23897553 0.5599375 14.06844034h-0.5599375v327.07373147c0 63.90291369-55.99379069 115.90714775-125.42609203 115.90714775-68.80237069 0-125.35609984-52.00423309-125.35609984-115.90714775 0-52.49417938 37.30586306-96.37931291 88.05023678-111.00769075 26.24708969-4.899457 46.05489328-27.08699594 46.05489328-53.05411687 0-30.30663947-26.24708969-54.66393816-57.74359731-54.66393816-2.30974412 0-4.68948044 0-6.9992236 0.5599375-5.24941794 1.04988378-10.49883587 2.16975975-15.74825381 3.77958103C144.57574241 480.95844256 72.90369009 566.55894988 72.90369009 667.27778131c0 123.46630884 108.48797006 224.18514028 242.03316166 224.18514125s242.03316166-100.71883144 242.03316166-224.18514125V517.77435934c0.5599375 0.5599375 1.18986816 0.5599375 1.74980565 1.04988378V342.93374709c-0.5599375-2.16975975-1.18986816-4.899457-1.18986815-7.06921578-0.5599375-3.21964256-0.5599375-6.50927828-0.5599375-9.72892181 0-64.46285216 55.99379069-116.39709306 125.42609203-116.39709306 68.80237069 0 125.35609984 52.00423309 125.35609984 116.39709306 0 50.88435713-36.18598709 94.76949163-85.74049266 110.44775325-4.05954978 0.5599375-8.18909175 1.60982128-12.24864153 3.21964256-20.43773328 8.11909956-34.43618144 27.64693441-34.4361824 50.39441278 0 29.81669416 25.05722153 54.66393816 56.55372915 54.66393816 1.74980566 0 3.49961228 0 5.24941794-0.55993847 4.05954978-0.5599375 7.55916206-1.04988378 11.05877434-2.16975878 2.30974412-0.5599375 4.68948044-1.04988378 6.9992236-2.16975975 1.74980566-0.5599375 2.93967381-1.04988378 4.68947947-1.60982128 0.5599375 0 0.5599375 0 1.18986815-0.5599375 95.04946037-29.81669416 163.29189259-113.737388 163.29189357-211.72652316 0-123.95625512-108.48797006-224.67508656-242.03316166-224.67508559z" fill="#9c27b0" /></svg>