<?xml version="1.0" standalone="no"?><!DOCTYPE svg PUBLIC "-//W3C//DTD SVG 1.1//EN" "http://www.w3.org/Graphics/SVG/1.1/DTD/svg11.dtd"><svg class="icon" width="200px" height="200.00px" viewBox="0 0 1024 1024" version="1.1" xmlns="http://www.w3.org/2000/svg"><path d="M336.384 403.456L56.32 697.344l17.92 137.216h871.424l15.36-69.632-233.472-204.288-126.464 154.112 2.048 21.504-9.216-12.288c0.512-0.512-257.536-320.512-257.536-320.512z" fill="#30a1dc" /><path d="M935.424 229.376H88.576c-20.48 0-37.376 15.872-37.376 35.328v563.712c0 19.456 16.896 35.328 37.376 35.328h846.336c20.48 0 37.376-15.872 37.376-35.328V264.704c0.512-19.456-16.384-35.328-36.864-35.328z m-11.776 592.384H100.352V271.872h823.296v549.888z" fill="#30a1dc" /></svg>