<?xml version="1.0" standalone="no"?><!DOCTYPE svg PUBLIC "-//W3C//DTD SVG 1.1//EN" "http://www.w3.org/Graphics/SVG/1.1/DTD/svg11.dtd"><svg class="icon" width="200px" height="200.00px" viewBox="0 0 1024 1024" version="1.1" xmlns="http://www.w3.org/2000/svg"><path d="M122.88 0h778.24a122.88 122.88 0 0 1 122.88 122.88v778.24a122.88 122.88 0 0 1-122.88 122.88H122.88a122.88 122.88 0 0 1-122.88-122.88V122.88a122.88 122.88 0 0 1 122.88-122.88z m288.8704 595.27168c-11.776 5.87776-26.25536 1.80224-32.58368-9.95328l-1.82272-3.62496-66.9696-146.92352a10.30144 10.30144 0 0 1-1.37216-4.97664c0-6.7584 5.44768-12.20608 12.22656-12.20608 2.72384 0 5.4272 0.9216 7.24992 2.2528l79.19616 56.07424c9.50272 6.32832 21.7088 7.68 32.58368 3.62496l372.9408-165.4784C746.22976 235.4176 636.25216 184.32 511.7952 184.32 308.55168 183.86944 143.36 321.3312 143.36 490.82368c0 92.24192 49.7664 175.86176 127.1808 231.91552 6.3488 4.52608 10.40384 12.20608 10.40384 19.90656 0 2.70336-0.45056 5.4272-1.35168 8.13056l-16.75264 61.93152a29.20448 29.20448 0 0 0-1.80224 9.05216c0 6.7584 5.4272 12.20608 12.22656 12.20608a13.68064 13.68064 0 0 0 7.22944-2.2528l80.56832-46.57152c5.87776-3.62496 12.67712-5.4272 19.456-5.87776 3.62496 0 7.24992 0.45056 10.8544 1.80224 39.38304 11.30496 79.6672 16.73216 120.40192 16.73216 203.6736 0 368.86528-137.4208 368.86528-306.97472 0-50.62656-14.9504-99.90144-42.0864-142.39744l-424.5504 245.02272-2.2528 1.82272z" fill="#43a047" /></svg>