<?xml version="1.0" standalone="no"?><!DOCTYPE svg PUBLIC "-//W3C//DTD SVG 1.1//EN" "http://www.w3.org/Graphics/SVG/1.1/DTD/svg11.dtd"><svg class="icon" width="200px" height="200.00px" viewBox="0 0 1024 1024" version="1.1" xmlns="http://www.w3.org/2000/svg"><path d="M365.5 776.3c57.1 32 123.6 49.3 193 49.3 197.6 0 358.4-140 358.4-313.6S756.1 198.4 558.6 198.4 200.2 338.4 200.2 512c0 64.5 22.3 126 63.1 177.9l-24.1 120.4c-2 10.2 8.3 18.4 17.7 14.2l108.6-48.2z m-77.4-96c-0.4-0.8-0.9-1.6-1.6-2.4-39.4-48.2-60.8-105.7-60.8-165.9 0-158.6 148.6-288 332.8-288s332.8 129.4 332.8 288-148.6 288-332.7 288c-66.8 0-130.6-17.1-184.8-48.5-3.6-2.5-8.3-3.2-12.6-1.3L246.6 801l17.7 14.2 25.2-126.1c0.7-3.1 0.1-6.2-1.4-8.8z" fill="#9e9e9e" /><path d="M251.7 828.6c-4.7 0-9.2-2.1-12.2-5.8-3-3.6-4.2-8.4-3.2-13.1l23.8-119.1c-41.2-52.7-62.9-114.4-62.9-178.6 0-84.8 37.7-164.4 106.1-224.2 68.2-59.6 158.9-92.4 255.3-92.4s187 32.8 255.3 92.4C882.3 347.6 920 427.2 920 512s-37.7 164.4-106.1 224.2c-68.2 59.6-158.9 92.4-255.3 92.4-68.7 0-135.4-16.9-193.2-48.9l-107.2 47.6c-2.1 0.8-4.3 1.3-6.5 1.3z m-7.9-25.9l-1.6 8.2c-0.6 2.9 0.1 5.8 2 8.1s4.7 3.7 7.6 3.7c1.4 0 2.7-0.3 4-0.9l7.6-3.4-19.6-15.7z m121.9-29.8l1.3 0.7c57.1 32 123.4 48.9 191.5 48.9 196 0 355.4-139.3 355.4-310.6S754.5 201.3 558.5 201.3c-196 0-355.4 139.3-355.4 310.6 0 63.3 21.6 124.1 62.5 176l0.9 1.1-21.9 109.6 21.9-9.7 20.1-100.4c0.5-2.3 0.1-4.7-1.1-6.8l-0.1-0.2c-0.3-0.6-0.7-1.3-1.2-1.8-40.2-49.2-61.4-107.2-61.4-167.7 0-39.3 8.9-77.4 26.4-113.2 16.9-34.7 41.1-65.8 72-92.5 63.4-55 147.7-85.2 237.4-85.2s174 30.3 237.4 85.2c30.8 26.7 55 57.9 72 92.5 17.5 35.9 26.4 74 26.4 113.2s-8.9 77.4-26.4 113.2c-16.9 34.7-41.1 65.8-72 92.5-63.4 55-147.7 85.2-237.4 85.2-66.7 0-131.1-16.9-186.3-48.9h-0.3c-2.8-2-6.5-2.4-9.7-1l-90.6 40.2-4.7 23.5 98.7-43.8z m-113.4 28.9l10 8 2.7-13.7-12.7 5.7zM375.4 749c54.3 31.4 117.6 48 183.2 48 181.9 0 329.8-127.9 329.8-285S740.5 227 558.6 227 228.8 354.8 228.8 512c0 59.1 20.8 115.9 60.1 164 0.7 0.9 1.4 1.9 1.9 2.9 1.9 3.3 2.5 7.2 1.7 10.9L273.2 786l86.7-38.5c2-0.9 4.2-1.4 6.4-1.4 3.3 0 6.4 1 9.1 2.9z" fill="#9e9e9e" /></svg>