<?xml version="1.0" standalone="no"?><!DOCTYPE svg PUBLIC "-//W3C//DTD SVG 1.1//EN" "http://www.w3.org/Graphics/SVG/1.1/DTD/svg11.dtd"><svg class="icon" width="200px" height="200.00px" viewBox="0 0 1024 1024" version="1.1" xmlns="http://www.w3.org/2000/svg"><path d="M819.882667 778.24c-43.008-92.16-354.986667-85.333333-236.202667-225.28 38.912-46.421333 79.872-108.544 79.872-175.445333 0-120.832-79.189333-219.136-177.493333-219.136-97.621333 0-177.493333 98.304-177.493334 219.136 0 66.901333 25.258667 111.957333 75.093334 174.762666 82.602667 123.562667-187.050667 132.437333-228.010667 220.501334-12.288 25.941333-14.336 46.421333-14.336 69.632 0 2.730667 0 6.144 1.365333 8.874666s4.096 4.096 6.144 4.096h672.426667c2.730667 0 4.778667-1.365333 6.144-4.096 1.365333-2.730667 1.365333-5.461333 1.365333-8.874666 1.365333-26.624-2.048-49.834667-8.874666-64.170667z" fill="#ffffff" /><path d="M938.666667 490.154667h-89.429334V400.042667c0-12.288-10.24-22.528-22.528-22.528-12.288 0-22.528 10.24-22.528 22.528v90.112h-89.429333c-12.288 0-22.528 10.24-22.528 22.528 0 12.288 10.24 22.528 22.528 22.528h89.429333v90.112c0 12.288 10.24 22.528 22.528 22.528 12.288 0 22.528-10.24 22.528-22.528V535.210667h89.429334c12.288 0 22.528-10.24 22.528-22.528 0-12.288-10.24-22.528-22.528-22.528z" fill="#ffffff" /></svg>