<?xml version="1.0" standalone="no"?><!DOCTYPE svg PUBLIC "-//W3C//DTD SVG 1.1//EN" "http://www.w3.org/Graphics/SVG/1.1/DTD/svg11.dtd"><svg class="icon" width="200px" height="200.00px" viewBox="0 0 1024 1024" version="1.1" xmlns="http://www.w3.org/2000/svg"><path d="M675.054633 225.101781c45.267996 0 87.826278 17.628496 119.834272 49.637514 32.009018 32.009018 49.637514 74.567299 49.637514 119.834272 0 45.267996-17.628496 87.825254-49.637514 119.834272L511.415692 797.881053 227.942479 514.406816c-32.009018-32.009018-49.637514-74.566276-49.637514-119.834272 0-45.266973 17.628496-87.825254 49.637514-119.834273 32.009018-32.009018 74.566276-49.637514 119.834272-49.637513s87.825254 17.628496 119.834273 49.637513l7.625678 7.625678 36.17899 36.178991L547.595706 282.363949l7.625678-7.625678c32.007995-32.009018 74.566276-49.63649 119.833249-49.63649m0-51.16531c-56.466036 0-112.932072 21.540595-156.014286 64.62281l-7.624655 7.625678-7.625678-7.625678c-43.082214-43.082214-99.54825-64.62281-156.014286-64.62281s-112.932072 21.540595-156.013263 64.62281c-86.164429 86.164429-86.164429 225.863121 0 312.027549l319.631738 319.631738 0.021489-0.02149 0.02149 0.02149 319.631737-319.631738c86.164429-86.164429 86.164429-225.863121 0-312.027549-43.082214-43.082214-99.54825-64.62281-156.014286-64.62281z" fill="#ffffff" /></svg>