<?xml version="1.0" standalone="no"?><!DOCTYPE svg PUBLIC "-//W3C//DTD SVG 1.1//EN" "http://www.w3.org/Graphics/SVG/1.1/DTD/svg11.dtd"><svg class="icon" width="200px" height="200.00px" viewBox="0 0 1024 1024" version="1.1" xmlns="http://www.w3.org/2000/svg"><path d="M906.942 271.6H761.74l-78.026-103.028-17.172-17.172H357.457l-17.171 17.171L262.259 271.6H117.057c-28.457 0-51.514 23.074-51.514 51.514v497.971c0 28.44 23.057 51.515 51.514 51.515h789.885c28.457 0 51.515-23.074 51.515-51.515V323.114c0-28.44-23.058-51.514-51.515-51.514z m17.172 549.485c0 9.491-7.697 17.172-17.172 17.172H117.057c-9.491 0-17.171-7.681-17.171-17.172V323.114c0-9.491 7.68-17.171 17.171-17.171h164.201l91.76-120.2h277.963l90.687 120.2h165.274c9.475 0 17.172 7.68 17.172 17.171v497.971zM512 374.628c-104.319 0-188.886 84.566-188.886 188.885 0 104.32 84.566 188.886 188.886 188.886 104.319 0 188.886-84.565 188.886-188.886-0.001-104.319-84.567-188.885-188.886-188.885z m-0.805 344.921c-85.739 0-155.23-69.507-155.23-155.229 0-85.723 69.491-155.231 155.23-155.231 85.723 0 155.231 69.507 155.231 155.231-0.001 85.722-69.509 155.229-155.231 155.229z" fill="#ffffff" /></svg>