<?xml version="1.0" standalone="no"?><!DOCTYPE svg PUBLIC "-//W3C//DTD SVG 1.1//EN" "http://www.w3.org/Graphics/SVG/1.1/DTD/svg11.dtd"><svg class="icon" width="200px" height="200.00px" viewBox="0 0 1024 1024" version="1.1" xmlns="http://www.w3.org/2000/svg"><path d="M1010.97201 425.146735h-117.251908v2.605597c-9.988126-45.597964-27.793045-88.156064-52.11196-126.371501l1.737066 1.737066 82.944868-82.944869c5.211196-5.211196 5.211196-13.462256 0-18.239186l-104.223918-104.223918c-5.211196-5.211196-13.462256-5.211196-18.239186 0L720.882103 180.654792l1.737066 1.737066c-38.215437-24.318914-80.773537-42.123834-126.371501-52.11196h2.605597V13.02799c0-7.382528-6.079729-13.02799-13.027989-13.02799h-147.650552c-7.382528 0-13.02799 5.645462-13.027989 13.02799v117.251908h2.605597C382.154368 140.268024 339.596268 158.072943 301.380831 182.391858l1.737066-1.737066-82.510603-82.944868c-5.211196-5.211196-13.462256-5.211196-18.239185 0l-104.223919 104.223918c-5.211196 5.211196-5.211196 13.462256 0 18.239186l82.944869 82.944869 1.737065-1.737066c-24.318914 38.215437-42.123834 80.773537-52.111959 126.371501v-2.605597H13.02799c-6.948261 0-13.02799 5.645462-13.02799 13.027989v147.650552c0 6.948261 6.079729 13.02799 13.02799 13.027989h117.251908v-2.605597c9.988126 45.597964 27.793045 88.156064 52.11196 126.371501l-1.737066-1.737066-82.944868 82.510603c-5.211196 5.211196-5.211196 13.462256 0 18.239185l104.223918 104.223919c5.211196 5.211196 13.462256 5.211196 18.239186 0l82.944869-82.944869-1.737066-1.737065c38.215437 24.318914 80.773537 42.123834 126.371501 52.111959h-2.605597v117.251909c0 7.382528 6.079729 13.02799 13.027989 13.02799h147.650552c7.382528 0 13.02799-5.645462 13.027989-13.02799v-117.251909h-2.605597c45.597964-9.988126 88.156064-27.793045 126.371501-52.111959l-1.737066 1.737065 82.944869 82.944869c5.211196 5.211196 13.462256 5.211196 18.239186 0l104.223918-104.223919c5.211196-5.211196 5.211196-13.462256 0-18.239185l-82.944868-82.944869-1.737066 1.737065c24.318914-38.215437 42.123834-80.773537 52.11196-126.371501v2.605598h117.251908c7.382528 0 13.02799-5.645462 13.02799-13.02799v-147.650551c0-6.513995-5.645462-12.593723-13.02799-12.593723z m-498.97201 369.126378c-155.901612 0-282.273113-126.371501-282.273113-282.273113s126.371501-282.273113 282.273113-282.273113 282.273113 126.371501 282.273113 282.273113-126.371501 282.273113-282.273113 282.273113z" fill="#29abe2" /></svg>