<?xml version="1.0" standalone="no"?><!DOCTYPE svg PUBLIC "-//W3C//DTD SVG 1.1//EN" "http://www.w3.org/Graphics/SVG/1.1/DTD/svg11.dtd"><svg class="icon" width="200px" height="200.00px" viewBox="0 0 1024 1024" version="1.1" xmlns="http://www.w3.org/2000/svg"><path d="M404.658 745.148c85.195-92.981 80.281-90.114 97.484-90.114h273.203c14.336 0 25.805-11.879 25.805-26.625v-367c0-14.746-11.469-26.625-25.805-26.625H253.923c-14.336 0-25.804 11.879-25.804 26.625v367c0 14.746 11.468 26.625 25.804 26.625h111.41c17.204 0 29.083 9.832 39.325 90.114m-23.348 79.05s-13.52-126.156-24.168-126.156H236.31c-26.625 0-48.332-22.527-48.332-50.379V242.155c0-27.851 21.707-50.378 48.332-50.378h556.648c26.622 0 48.332 22.527 48.332 50.378v405.508c0 27.852-21.71 50.379-48.332 50.379H509.923c-11.468-0.41-128.613 126.156-128.613 126.156z m0 0" fill="#ffffff" /></svg>