<?xml version="1.0" standalone="no"?><!DOCTYPE svg PUBLIC "-//W3C//DTD SVG 1.1//EN" "http://www.w3.org/Graphics/SVG/1.1/DTD/svg11.dtd"><svg class="icon" width="200px" height="200.00px" viewBox="0 0 1024 1024" version="1.1" xmlns="http://www.w3.org/2000/svg"><path d="M962.7648 833.2288H153.3952c-14.0288 0-25.3952-11.3664-25.3952-25.3952V203.264c0-14.0288 11.3664-25.3952 25.3952-25.3952h809.3696c14.0288 0 25.3952 11.3664 25.3952 25.3952v604.5696c0 14.0288-11.3664 25.3952-25.3952 25.3952zM49.0496 521.4208l78.9504 64.512v-160.768l-78.9504 64.512c-10.0352 8.192-10.0352 23.552 0 31.744zM343.04 403.1488c-56.5248 0-102.4 45.8752-102.4 102.4s45.8752 102.4 102.4 102.4 102.4-45.8752 102.4-102.4-45.8752-102.4-102.4-102.4z m430.08 0c-56.5248 0-102.4 45.8752-102.4 102.4s45.8752 102.4 102.4 102.4 102.4-45.8752 102.4-102.4-45.8752-102.4-102.4-102.4z" fill="#707070" /></svg>